<?xml version="1.0" encoding="UTF-8" standalone="no"?>
<!-- Created with Inkscape (http://www.inkscape.org/) -->

<svg
   xmlns:dc="http://purl.org/dc/elements/1.1/"
   xmlns:cc="http://creativecommons.org/ns#"
   xmlns:rdf="http://www.w3.org/1999/02/22-rdf-syntax-ns#"
   xmlns:svg="http://www.w3.org/2000/svg"
   xmlns="http://www.w3.org/2000/svg"
   xmlns:sodipodi="http://sodipodi.sourceforge.net/DTD/sodipodi-0.dtd"
   xmlns:inkscape="http://www.inkscape.org/namespaces/inkscape"
   version="1.1"
   id="svg2"
   width="325"
   height="325"
   viewBox="0 0 325 325"
   sodipodi:docname="computer-user.svg"
   inkscape:version="0.92.1 r15371">
  <metadata
     id="metadata8">
    <rdf:RDF>
      <cc:Work
         rdf:about="">
        <dc:format>image/svg+xml</dc:format>
        <dc:type
           rdf:resource="http://purl.org/dc/dcmitype/StillImage" />
        <dc:title></dc:title>
      </cc:Work>
    </rdf:RDF>
  </metadata>
  <defs
     id="defs6" />
  <sodipodi:namedview
     pagecolor="#ffffff"
     bordercolor="#666666"
     borderopacity="1"
     objecttolerance="10"
     gridtolerance="10"
     guidetolerance="10"
     inkscape:pageopacity="0"
     inkscape:pageshadow="2"
     inkscape:window-width="864"
     inkscape:window-height="480"
     id="namedview4"
     showgrid="false"
     inkscape:zoom="0.72615385"
     inkscape:cx="162.5"
     inkscape:cy="162.5"
     inkscape:window-x="0"
     inkscape:window-y="144"
     inkscape:window-maximized="0"
     inkscape:current-layer="svg2" />
  <path
     style="fill:#000000"
     d="m 153.03376,270.8056 c -2.77587,-1.68896 -3.94274,-2.83533 -5.84094,-5.73836 -1.48069,-2.26452 -1.67203,-6.95719 -1.72421,-42.28832 -0.0574,-38.87875 -0.0129,-39.80545 2.05165,-42.70486 3.81772,-5.36149 4.20506,-5.4231 37.47127,-5.95965 l 31,-0.5 -0.23717,-6 c -0.23622,-5.97597 -1.2821,-11.17263 -3.87339,-19.24569 -1.63697,-5.09989 -8.9629,-19.87266 -10.24927,-20.66768 -1.51942,-0.93905 -2.73798,1.36536 -7.62172,14.41337 -6.81772,18.21505 -4.30758,17 -35.11967,17 h -25.48969 l -2.45454,-2.45455 c -2.94367,-2.94366 -3.14227,-6.47372 -0.54486,-9.68467 1.87867,-2.32243 2.26962,-2.3689 24.06486,-2.86078 l 22.15516,-0.5 1.39064,-2.5 c 1.61722,-2.90732 8.41223,-20.81031 12.44324,-32.78452 1.53391,-4.55649 3.6321,-9.216873 4.66266,-10.356413 2.687,-2.97114 8.78601,-5.85907 12.37375,-5.85907 3.88003,0 9.71746,2.9648 13.10982,6.65842 9.67966,10.539233 21.4468,34.217003 24.76978,49.841583 0.58486,2.75 1.52621,7.11177 2.09189,9.69282 0.56568,2.58105 1.02851,10.41652 1.02851,17.41214 0,11.81499 -0.18051,13.02735 -2.53889,17.05161 -4.53366,7.73612 -4.73643,7.77742 -40.96111,8.34343 l -32,0.5 -0.5,30.54647 c -0.44584,27.23763 -0.69545,30.8445 -2.30433,33.29774 -3.75453,5.72495 -12.20364,8.35866 -17.15344,5.34698 z M 114.24222,164.59054 c -0.26536,-1.38812 -0.14156,-2.73456 0.27512,-2.99208 1.34806,-0.83315 7.23604,-0.84099 18.47419,-0.0246 12.24885,0.88981 15.33237,1.83267 13.44212,4.11028 -0.93451,1.12602 -4.43334,1.43027 -16.44799,1.43027 h -15.26098 z m -41.750695,0.0459 c 0,-0.83714 0.827768,-1.52207 1.839485,-1.52207 1.011717,0 2.338282,-1.09474 2.947923,-2.43276 0.787542,-1.72846 2.060769,-2.5246 4.397962,-2.75 2.707528,-0.26111 3.710275,-1.08221 5.667675,-4.64097 2.189421,-3.9806 2.291342,-4.77421 1.28428,-10 -1.13499,-5.88963 -2.424388,-18.3157 -4.232097,-40.78517 l -1.054635,-13.108902 4.21867,-5.6411 c 3.787709,-5.064831 4.593808,-5.641101 7.890897,-5.641101 h 3.67223 l 1.229995,15.25 c 2.68821,33.329593 3.17853,39.193683 4.23785,50.683313 0.60513,6.56332 0.83678,12.35959 0.51478,12.8806 -1.19985,1.9414 -6.041205,2.01881 -8.681435,0.1388 l -2.608571,-1.85747 -1.662505,3.48631 c -0.914377,1.91747 -1.662504,3.67974 -1.662504,3.91616 0,0.23643 4.27729,0.55866 9.50508,0.71608 5.482275,0.16508 9.503645,0.70944 9.501675,1.28621 -0.002,0.62067 -7.02162,1.1032 -18.505085,1.27207 -16.017635,0.23553 -18.50167,0.0677 -18.50167,-1.25 z M 170.49153,96.807047 c -4.90822,-1.54705 -13.27886,-10.214815 -14.78388,-15.30866 -5.13625,-17.383937 6.32507,-33.609957 23.88122,-33.809133 9.80971,-0.111292 18.79904,5.418467 22.86296,14.064085 2.97912,6.337807 3.05675,16.447167 0.16974,22.106164 -2.64917,5.192805 -9.94878,11.584414 -14.93688,13.078884 -4.75641,1.42506 -12.44154,1.36635 -17.19316,-0.13134 z"
     id="path4487"
     inkscape:connector-curvature="0" />
</svg>
